<?xml version="1.0" encoding="utf-8"?>
<!-- Generator: Adobe Illustrator 27.5.0, SVG Export Plug-In . SVG Version: 6.00 Build 0)  -->
<svg version="1.1" xmlns="http://www.w3.org/2000/svg" xmlns:xlink="http://www.w3.org/1999/xlink" x="0px" y="0px"
	 viewBox="0 0 750 500" style="enable-background:new 0 0 750 500;" xml:space="preserve">
<g id="BACKGROUND">
	<rect style="fill:#DCF1F4;" width="750" height="500"/>
</g>
<g id="OBJECTS">
	<g>
		<ellipse style="fill:#BAD5D6;" cx="367.356" cy="444.693" rx="66.167" ry="16.973"/>
		<g>
			<g>
				<path style="fill:#FD5150;" d="M337.658,115.97c-0.618,3.936,0.805,8.115-0.505,11.878c-1.818,5.225-8.006,7.397-13.499,8.054
					c2.055,1.241,4.537,1.518,6.935,1.657c6.865,0.399,15.009-0.836,18.209-6.923c2.281-4.34,1.508-10.36,5.3-13.468
					c1.297-1.063,2.966-1.601,4.236-2.696c5.88-5.069-0.702-11.296-6.453-10.584C346.381,104.57,338.542,110.343,337.658,115.97z"/>
				<g>
					<path style="fill:#E03B3B;" d="M336.663,134.164c2.127-0.761,3.613-1.768,4.381-4.005c1.49-4.342-1.343-9.792,3.042-13.088
						c0.345-0.259,0.026-0.847-0.347-0.594c-6.231,4.229,0.656,14.072-7.242,17.083
						C336.127,133.703,336.281,134.301,336.663,134.164L336.663,134.164z"/>
				</g>
				<g>
					<path style="fill:#E03B3B;" d="M342.358,132.703c1.736-1.585,3.014-3.059,3.204-5.475c0.313-3.99-0.657-8.007,3.268-10.674
						c0.395-0.268,0.037-0.904-0.379-0.648c-2.003,1.235-3.055,3.103-3.496,5.397c-0.237,1.236-0.239,2.458-0.191,3.712
						c0.121,3.129-0.664,5.083-2.837,7.257C341.648,132.551,342.069,132.967,342.358,132.703L342.358,132.703z"/>
				</g>
			</g>
			<g>
				<g>
					<path style="fill:#FF866D;" d="M363.102,402.224c-6.112,6.943,5.039,15.605,10.065,20.361
						c2.528,2.393,7.956,4.838,11.323,3.953c-0.815-5.617-4.877-11.051-7.702-15.973c-1.041-1.814-2.253-3.728-2.067-5.812
						c0.117-1.316,0.786-2.51,1.44-3.659c4.205-7.379,13.365-22.35,14.329-24.761c4.667-11.667-2.285-16.24-7.464-16.932
						c-6.227-0.831-7.909,5.282-7.909,5.282C370.99,378.667,368.716,388.779,363.102,402.224z"/>
					<path style="fill:#C43D3D;" d="M377.836,433.358c7.32,5.151,10.149,3.486,10.154,0.975c0.008-5-6.201-15.304-6.201-15.304
						c-1.874,1.217-3.765,4.443-5.966,3.971c-2.972-3.974-14.505-14.667-12.167-21.667c-3.405,0.932-5.618,6.006-4.894,9.46
						C360.781,420.416,370.276,428.039,377.836,433.358z"/>
				</g>
				<g>
					<path style="fill:#FF866D;" d="M352.732,414.333c0.594,5.735,1.826,9.926-1.698,14.489c-2.072,2.683-3.711,4.177-7.828,6.741
						c-9.582,7.27-4.724,13.354,4.45,7.937c0.705-0.416,20.293-9.946,20.741-10.631c0.989-1.513,0.25-3.503-0.386-5.195
						c-2.578-6.855-2.788-10.326-3.227-17.637c-0.855-14.246,0.883-18.286,1.539-26.37c-2.833-9.667-16.667-9-17.709,0.941
						C350.459,398.742,351.843,405.757,352.732,414.333z"/>
					<path style="fill:#C43D3D;" d="M370.478,435.985c0.029-3.167-0.822-6.985-3.139-10.271c0.162,1.009-0.517,3.453-3.517,5.619
						c-4.028,2.909-12.261,9.5-16.5,9c-1.766-1.801-1.905-2.514-4.117-4.77c-5.248,3.475-13.383,10.437-9.582,12.937
						c4.687,3.082,11.509,1.615,16.686-0.545C357.424,444.986,370.473,436.625,370.478,435.985z"/>
				</g>
				<path style="fill:#9B1F5D;" d="M412.656,234c-17.849,0.753-61.153,1.468-79,0.667c-1.514,13.662-1.673,25.866,4.326,59.667
					c6.212,35,5.569,63.328,10.632,90.274c7.992,1.093,11.876,1.059,17.709-0.941c1.903-19.891,2.52-29.665,1.43-52.839
					c-0.995-21.146,2.522-48.155,5.085-69.328c1.131-0.032,1,0,2.131-0.032c-0.35,1.556,9.491,42.752,13.023,55.798
					c1.059,3.91,3.727,8.539,1.55,11.956c-10.052,15.778-11.886,26.944-14.425,35.461c7.186,6.367,10.539,9.317,15.373,11.65
					c5.717-11.31,10.459-20.585,16.177-31.895c1.64-3.244,3.296-6.531,4.074-10.081C411.536,330.722,417.007,254.667,412.656,234z"
					/>
			</g>
			<g>
				<g>
					<path style="fill:#FF447D;" d="M345.292,194.622c1.296,7.154-10.803,25.376-11.635,40.045c9.667,13.5,79.818,9.155,79-0.667
						c-1-12-16.69-38.062-8.333-60.223c4.429-11.744,5.833-25.111,4.258-38.459c-0.093-0.786-12.167-2.583-18.256-2.583
						c0,0-6.835,8.765-20.957,9.098c-13.05,0.308-23.085-7.372-23.085-7.372c-2.548,0.517-12.351,2.306-14.617,3.349
						C318.156,144.03,343.05,182.253,345.292,194.622z"/>
					<g>
						<path style="fill:#EF2B6D;" d="M352.94,182.036c2.245,1.869,5.014,2.743,7.94,2.47c2.36-0.22,5.842-1.259,6.877-3.598
							c0.228-0.516-0.233-0.975-0.748-0.748c-2.229,0.98-3.632,2.468-6.237,2.741c-2.55,0.267-4.958-0.419-7.065-1.858
							C353.12,180.641,352.385,181.574,352.94,182.036L352.94,182.036z"/>
					</g>
					<g>
						<path style="fill:#EF2B6D;" d="M346.878,141.292c5.38,7.439,11.276,11.737,20.757,12.289
							c8.827,0.514,19.587-3.272,23.278-12.08c0.202-0.482-0.569-0.771-0.825-0.348c-5.328,8.824-14.572,12.425-24.681,11.215
							c-8.135-0.974-13.108-5.333-18.024-11.467C347.157,140.619,346.663,140.995,346.878,141.292L346.878,141.292z"/>
					</g>
				</g>
				<g>
					<path style="fill:#F27661;" d="M357.99,129.819c-1.089,3.862-5.49,3.517-11.707,4.642c3.662,6.309,9.963,15.38,23.017,15.38
						c17.094,0,22.17-17.186,21.025-17.106c-2.508,0.174-7.699-0.9-9.701-2.005c-2.986-1.647-2.388-14.46-2.633-20.605
						c0.051,1.237-18.566,0.001-19.667,0C358.572,119.779,359.651,123.927,357.99,129.819z"/>
					<g>
						<path style="fill:#D86252;" d="M354.304,139.942c3.682-0.159,10.913-0.266,12.658,3.671c0.208,0.469,1.055,0.247,0.99-0.268
							c-0.605-4.807-10.231-4.642-13.648-4.371C353.69,139.022,353.675,139.969,354.304,139.942L354.304,139.942z"/>
					</g>
					<g>
						<path style="fill:#D86252;" d="M372.139,143.42c0.889-3.242,5.072-3.574,7.858-3.696c1.714-0.075,4.435,0.598,5.99-0.135
							c0.229-0.108,0.22-0.483,0-0.594c-0.952-0.479-2.318-0.256-3.364-0.263c-1.721-0.012-3.452,0.033-5.155,0.298
							c-2.593,0.403-5.428,1.344-6.081,4.182C371.273,143.701,372.006,143.907,372.139,143.42L372.139,143.42z"/>
					</g>
				</g>
			</g>
			<g>
				<path style="fill:#FF866D;" d="M436.204,211.401c-9.629,7.319-17.881-7.301-29.664-36.997
					c-2.667-6.72-8.846-15.915-9.883-23.071c-0.506-3.492-0.685-15.934,4.333-16.872
					C429.323,129.167,438.861,209.381,436.204,211.401z"/>
				<g>
					<path style="fill:#FFFFFF;" d="M391.02,167.644h-15.061c-0.765,0-1.386,0.62-1.386,1.386v32.108
						c0,0.765,0.62,1.386,1.386,1.386h15.061c0.765,0,1.386-0.62,1.386-1.386V169.03
						C392.406,168.265,391.785,167.644,391.02,167.644z"/>
					<circle style="fill:#17213A;" cx="386.828" cy="172.419" r="2.318"/>
				</g>
				<path style="fill:#FF866D;" d="M399.435,202.896c-1.963-1.804-3.609-4.28-5.575-6.021c-1.294-1.146-2.726-1.974-4.477-2.083
					c-2.981-0.185-9.564,0.8-9.299-0.727c0.18-1.037,7.184-1.175,6.964-2.204c-0.262-1.228-10.225-2.195-8.15-3.958
					c0.478-0.406,7.963,0.888,7.93,0.262c-0.049-0.922-10.81-3.877-9.255-5.25c1.112-1.344,9.75,2.167,10.75,1.717
					c1.165-0.525-8.106-4.305-7.75-5.551c0.667-2.333,9.083,3.917,11.583,3.833c0.071-2.201,0.179-2.682,0.25-4.883
					c1.177,0.442,2.615,1.106,2.973,2.312c0.538,1.808,2.25,4.431,2.527,5.738c0.589,2.781,7.945,8.62,13.807,9.799
					c10.109,2.034,8.118-1.613,15.677-0.193c9.082,1.706,13.783,17.78,3.933,21.978
					C416.723,223.888,401.591,204.879,399.435,202.896z"/>
				<g>
					<path style="fill:#F27661;" d="M418.83,197.54c2.692,0.477,5.475,0.937,7.929,2.212c2.153,1.118,3.248,2.798,4.793,4.531
						c0.344,0.386,0.899-0.031,0.81-0.471c-1.088-5.337-8.974-6.615-13.258-7.266C418.46,196.448,418.171,197.423,418.83,197.54
						L418.83,197.54z"/>
				</g>
			</g>
			<g>
				<path style="fill:#FF866D;" d="M313.553,204.1c0.751,4.779,2.142,23.578,11.827,19.573c4.526-3.107,4.328-17.888,4.821-23.355
					c0.993-11,21.483-65.044,3.788-62.818C308.823,140.667,312.802,199.322,313.553,204.1z"/>
				<path style="fill:#FF866D;" d="M350.99,182.965c0.421-1.93,0.45-5.392,2.274-6.15c2.282-0.949,8.164,0.328,8.726-2.078
					c0.167-0.714,0.889-2.839,0.833-3.571c-0.211-2.775-0.268-4.394,2.5-4.68c2.768-0.286,7.726,2.688,7.333,1.158
					c-3.147-4.143-8.541-5.241-13.675-4.4c-12.836,2.104-13.828,10.996-20.174,20.526c-4.794,7.199-24.775,19.913-22.984,28.896
					c3.236,16.232,9.595,11.307,14.5,8.333C344.619,212.333,349.486,189.865,350.99,182.965z"/>
				<g>
					<path style="fill:#F27661;" d="M327.576,193.922c-4.186,3.522-8.238,10.947-6.752,16.544c0.129,0.488,0.823,0.463,0.964,0
						c0.766-2.511,0.821-5.144,1.743-7.637c1.122-3.033,2.947-5.494,4.995-7.957C329.08,194.207,328.242,193.362,327.576,193.922
						L327.576,193.922z"/>
				</g>
			</g>
			<g>
				<path style="fill:#FF866D;" d="M350.99,104.5c0.071,5.263,1.816,10.916,5.658,14.514c1.584,1.484,8.343,7.906,13.676,7.319
					c2.528-0.278,11.824-8.666,12.835-11c3.03-6.997,2.692-12.349,2.591-19.974c-0.101-7.624-3.173-15.533-9.412-19.917
					c-2.96-2.08-6.461-3.273-10.001-4.016c-2.527-0.53-5.229-0.83-7.635,0.108c-2.779,1.084-4.746,3.711-5.658,6.551
					C350.595,85.714,350.883,96.617,350.99,104.5z"/>
				<path style="fill:#FD5150;" d="M367.008,84.951c2.495-2.922,5.647-3.178,9.435-2.534c0.251,3.458,0.651,3.429,1.684,6.738
					c1.419,4.548,4.753,9.595,9.494,9.122c3.704-7.443,1.988-15.277-1.188-22.853c-0.726-1.733-10.688-9.202-22.61-8.09
					c-11.957,1.116-16.042,10.878-17.614,16.531c-2.133,7.674-0.562,10.107-0.002,14.063
					C353.235,99.787,362.846,89.824,367.008,84.951z"/>
				<path style="fill:#FFCC32;" d="M344.742,88.852c-3.866,0-7,3.134-7,7v10.219c0,3.866,3.134,7,7,7s7-3.134,7-7V95.852
					C351.742,91.986,348.608,88.852,344.742,88.852z"/>
				<path style="fill:#FFCC32;" d="M391.324,87.686c-3.866,0-7,3.134-7,7v10.219c0,3.866,3.134,7,7,7s7-3.134,7-7V94.686
					C398.324,90.82,395.19,87.686,391.324,87.686z"/>
				<g>
					<path style="fill:#FFCC32;" d="M347.729,92.544c-1.773-12.498,5.44-23.305,18.486-24.174
						c7.104-0.473,14.975,1.287,19.168,7.538c2.974,4.434,3.588,10.075,2.839,15.257c-0.273,1.888,2.617,2.704,2.893,0.798
						c0.916-6.336,0.169-13.085-3.71-18.378c-4.85-6.617-13.347-8.69-21.19-8.215c-15.172,0.918-23.43,13.515-21.379,27.971
						C345.106,95.245,347.997,94.435,347.729,92.544L347.729,92.544z"/>
				</g>
				<ellipse style="fill:#A53030;" cx="360.635" cy="102.705" rx="1.377" ry="2.151"/>
				<ellipse style="fill:#A53030;" cx="375.951" cy="102.705" rx="1.377" ry="2.151"/>
				<g>
					<path style="fill:#E86B5B;" d="M368.34,99.042c-0.561,1.828-0.682,3.573-0.059,5.405c0.271,0.794,0.674,1.502,1.083,2.234
						c0.922,1.651,4.005,5.658-0.48,6.618c-0.465,0.1-0.333,0.776,0.108,0.798c1.994,0.101,3.116-1.606,3.151-3.487
						c0.026-1.354-0.587-2.614-1.208-3.772c-1.354-2.521-2.294-4.548-1.585-7.519C369.506,98.664,368.538,98.397,368.34,99.042
						L368.34,99.042z"/>
				</g>
				<g>
					<path style="fill:#E03B3B;" d="M357.685,96.046c0.926-0.997,2.135-1.567,3.496-1.627c1.098-0.048,1.946,0.502,2.982,0.638
						c0.228,0.03,0.272-0.264,0.166-0.4c-0.714-0.913-2.349-0.957-3.398-0.803c-1.381,0.203-2.597,0.879-3.488,1.949
						C357.303,95.97,357.532,96.211,357.685,96.046L357.685,96.046z"/>
				</g>
				<g>
					<path style="fill:#E03B3B;" d="M379.284,95.803c-0.892-1.071-2.106-1.746-3.488-1.949c-1.057-0.155-2.682-0.113-3.398,0.803
						c-0.106,0.135-0.061,0.43,0.166,0.4c1.035-0.136,1.881-0.686,2.982-0.638c1.358,0.06,2.573,0.632,3.496,1.627
						C379.194,96.211,379.423,95.971,379.284,95.803L379.284,95.803z"/>
				</g>
				<g>
					<path style="fill:#E86B5B;" d="M365.008,117.24c1.386,1.388,3.587,2.015,5.515,1.741c1.554-0.22,3.828-1.303,3.707-3.147
						c-0.02-0.3-0.332-0.516-0.611-0.351c-1.321,0.781-1.89,1.988-3.617,2.139c-1.675,0.147-2.982-0.743-4.514-1.205
						C365.011,116.273,364.666,116.897,365.008,117.24L365.008,117.24z"/>
				</g>
				<g>
					<path style="fill:#F26B55;" d="M356.909,109.483c0.428,0.925,1.784,1.353,2.68,1.635c1.005,0.316,2.242-0.373,2.477-1.407
						c0.24-1.056-0.317-2.188-1.407-2.477c-0.941-0.249-2.284-0.568-3.162,0.004C356.702,107.758,356.521,108.643,356.909,109.483
						L356.909,109.483z"/>
				</g>
				<g>
					<path style="fill:#F26B55;" d="M379.813,106.666c-0.877-0.572-2.22-0.254-3.162-0.004c-1.018,0.27-1.739,1.449-1.406,2.477
						c0.326,1.007,1.401,1.745,2.477,1.406c0.893-0.281,2.253-0.711,2.68-1.635C380.788,108.075,380.614,107.189,379.813,106.666
						L379.813,106.666z"/>
				</g>
				<g>
					<path style="fill:#D6A429;" d="M343.501,92.437c-1.877,0.557-1.818,2.389-1.886,4.103c-0.149,3.807-0.144,7.637,0.105,11.439
						c0.024,0.37,0.299,0.704,0.696,0.696c0.528,0.017,1.052-0.021,1.572-0.114c0.561-0.07,0.839-1.001,0.15-1.105
						c-0.697-0.105-1.015-0.142-1.722-0.174c0.232,0.232,0.464,0.464,0.696,0.696c0.002-2.288-0.041-4.575-0.041-6.863
						c0-1.946-0.638-6.377,0.907-7.857C344.333,92.921,343.97,92.298,343.501,92.437L343.501,92.437z"/>
				</g>
				<g>
					<path style="fill:#D6A429;" d="M392.834,92.58c1.579-0.23,3.277,14.134-0.502,14.251c-0.494,0.015-0.806,0.79-0.276,1.019
						c0.162,0.07,0.325,0.141,0.487,0.211c0.298,0.129,0.561,0.108,0.811-0.105c2.717-2.315,2.462-7.455,2.181-10.609
						c-0.183-2.05,0.048-6.29-2.979-5.776C391.887,91.684,392.179,92.675,392.834,92.58L392.834,92.58z"/>
				</g>
				<g>
					<path style="fill:#E03B3B;" d="M354.868,90.111c2.445-1.58,4.824-2.846,6.616-5.146c3.342-4.289,7.55-6.109,12.947-5.574
						c0.418,0.042,0.513-0.655,0.1-0.737c-3.504-0.688-7.108,0.082-10.073,2.088c-1.345,0.91-2.378,2.062-3.362,3.334
						c-1.853,2.395-4.087,3.729-6.606,5.387C354.088,89.727,354.46,90.374,354.868,90.111L354.868,90.111z"/>
				</g>
				<g>
					<path style="fill:#E03B3B;" d="M354.128,84.868c2.794-1.48,4.271-3.344,6.371-5.612c3.402-3.674,9.921-6.325,14.479-3.68
						c0.46,0.267,0.83-0.404,0.41-0.702c-3.611-2.563-6.045-1.553-9.89,0.109c-2.26,0.976-4.005,1.798-5.633,3.638
						c-1.954,2.208-3.46,4.043-6.13,5.572C353.296,84.445,353.685,85.103,354.128,84.868L354.128,84.868z"/>
				</g>
				<g>
					<path style="fill:#E03B3B;" d="M352.688,80.678c1.775-0.625,3.019-1.82,4.186-3.259c1.342-1.656,2.65-3.125,4.183-4.603
						c0.254-0.245-0.068-0.577-0.35-0.454c-3.558,1.545-4.536,6.281-8.217,7.845C352.222,80.32,352.413,80.775,352.688,80.678
						L352.688,80.678z"/>
				</g>
				<g>
					<path style="fill:#E03B3B;" d="M379.355,83.049c0.832,0.906,1.547,1.891,2.115,2.983c0.514,0.988,0.764,2.104,1.32,3.063
						c0.115,0.198,0.417,0.108,0.422-0.114c0.051-2.328-1.842-4.82-3.36-6.429C379.54,82.222,379.049,82.717,379.355,83.049
						L379.355,83.049z"/>
				</g>
				<g>
					<path style="fill:#E03B3B;" d="M380.534,79.209c0.863,0.46,1.638,1.039,2.3,1.762c0.669,0.732,1.066,1.597,1.631,2.392
						c0.152,0.214,0.487,0.088,0.428-0.181c-0.424-1.942-2.423-3.561-4.115-4.392C380.501,78.654,380.257,79.061,380.534,79.209
						L380.534,79.209z"/>
				</g>
				<g>
					<path style="fill:#E03B3B;" d="M380.736,75.547c1.011,0.518,1.961,1.129,2.823,1.872c0.798,0.688,1.431,1.535,2.213,2.233
						c0.246,0.219,0.606-0.054,0.454-0.35c-0.991-1.929-3.286-3.375-5.182-4.281C380.693,74.854,380.384,75.367,380.736,75.547
						L380.736,75.547z"/>
				</g>
			</g>
		</g>
	</g>
	<g>
		<ellipse style="fill:#BAD5D6;" cx="602.333" cy="448.693" rx="66.167" ry="16.973"/>
		<g>
			<g>
				<path style="fill:#E86B5B;" d="M563.253,180.838c0.355,3.455,1.118,7.213,3.826,9.389c2.004,1.611,4.688,2.027,7.236,2.37
					c1.931,0.26,4.091,0.455,5.642-0.724c1.16-0.882,1.701-2.341,2.122-3.736c3.392-11.217,2.708-23.383-0.321-34.704
					c-0.564-2.109-1.263-4.29-2.817-5.824c-1.74-1.717-4.265-2.34-6.684-2.69c-1.52-0.22-3.108-0.354-4.561,0.143
					c-5.601,1.914-4.208,9.444-4.485,13.961C562.767,166.284,562.508,173.587,563.253,180.838z"/>
				<path style="fill:#E86B5B;" d="M577.572,177.112c-4.412-3.859-12.152-3.495-14.917-8.663c0,0-13.183-15.679-11.736-25.564
					c0.831-5.675-0.956-12.395-2.955-18.321c-0.234-0.693-0.477-1.403-0.938-1.971c-1.573-1.934-4.72-1.336-6.886-2.57
					c-0.736,0.399-0.591,1.574,0.013,2.154c0.604,0.58,1.463,0.786,2.21,1.164c3.084,1.559,3.574,3.932,3.869,7.375
					c-3.297-0.294-8.399-0.394-10.368,2.266c-1.969,2.661-0.556,9.647,0.689,12.715c0.369,0.91,4.224,2.106,5.074,2.812
					c0.448,0.372,0.634,0.965,0.787,1.527c1.845,6.752,2.103,13.88,4.19,20.561c1.191,3.811,2.959,7.416,4.846,10.936
					c2.814,5.249,6.238,10.651,11.681,13.071c4.967,2.208,13.993,2.789,17.597-1.281
					C584.333,189.254,581.663,180.691,577.572,177.112z"/>
				<path style="fill:#F9C893;" d="M564.809,130.802c-2.574,7.313-3.833,16.27-2.758,23.948c9.001,2.435,19.03,1.745,28.179-0.056
					c1.733-0.341,2.38-15.216,2.45-17.062c0.226-5.929,1.773-31.412-2.575-30.09c-6.244,1.899-13.921,6.48-16.643,9.207
					C569.55,120.67,566.643,125.592,564.809,130.802z"/>
			</g>
			<g>
				<path style="fill:#883942;" d="M646.209,450.188c-8.324,1.452-27.846,0.485-29.178,0.157c-7.49-1.844,6.636-15.011,5.01-25.094
					c-0.421-2.612,0.563-6.806,1.25-9.361c0.177-0.656,13.03-3.024,14.376,1.778c0.479,1.709,2.362,5.819,2.305,7.981
					C639.667,437.333,652.291,446.1,646.209,450.188z"/>
				<g>
					<path style="fill:#682B34;" d="M624.27,442.993c4.337-0.635,8.684-0.83,13.062-0.632c1.287,0.059,1.284-1.942,0-2
						c-4.564-0.207-9.074,0.041-13.593,0.703C622.47,441.25,623.009,443.178,624.27,442.993L624.27,442.993z"/>
				</g>
				<g>
					<path style="fill:#682B34;" d="M625.984,437.148c3.634-0.96,7.288-1.274,11.031-0.973c1.283,0.103,1.276-1.897,0-2
						c-3.92-0.315-7.763,0.041-11.563,1.044C624.209,435.548,624.736,437.478,625.984,437.148L625.984,437.148z"/>
				</g>
				<g>
					<path style="fill:#682B34;" d="M627.597,430.622c2.521-0.503,5.002-0.369,7.467,0.353c1.238,0.362,1.766-1.567,0.532-1.929
						c-2.814-0.824-5.658-0.925-8.53-0.353C625.805,428.945,626.338,430.874,627.597,430.622L627.597,430.622z"/>
				</g>
			</g>
			<g>
				<path style="fill:#883942;" d="M608.791,441.509c-0.008,2.265-42.834,1.558-44.75,1.241c-7.5-1.241-6.36-5.256-1.849-8.432
					c2.14-1.506,21.772-5.158,23.008-7.318c1.249-2.183,1.741-4.717,1.841-5.25c0.767-4.072,3.913-4.288,4.06-8.429
					c7.248-1.329,14.682,2.01,15.94,9.931C607.997,429.271,608.811,435.423,608.791,441.509z"/>
				<g>
					<path style="fill:#682B34;" d="M573.21,435.433c1.647,0.817,3.294,1.634,4.941,2.452c1.149,0.57,2.164-1.154,1.009-1.727
						c-1.647-0.817-3.294-1.634-4.941-2.452C573.07,433.136,572.056,434.861,573.21,435.433L573.21,435.433z"/>
				</g>
				<g>
					<path style="fill:#682B34;" d="M581.408,432.28c2.442,1.007,4.883,2.013,7.325,3.02c1.189,0.49,1.707-1.444,0.532-1.928
						c-2.442-1.007-4.883-2.013-7.325-3.02C580.751,429.861,580.233,431.795,581.408,432.28L581.408,432.28z"/>
				</g>
				<g>
					<path style="fill:#682B34;" d="M588.755,428.214c2.221,0.562,4.441,1.123,6.662,1.685c1.248,0.316,1.781-1.613,0.532-1.929
						c-2.221-0.562-4.441-1.123-6.662-1.685C588.039,425.97,587.506,427.898,588.755,428.214L588.755,428.214z"/>
				</g>
			</g>
			<path style="fill:#17213A;" d="M639.972,425.648c-8.984,0.031-8.948-0.429-17.931-0.398c-2.925-51.848-5.045-157.491-9.41-162.25
				c-1.524-1.661-0.962-1.819-2.294,0c-1.602,53.199-2.767,115.042-3.297,160.252c-6.5,2.397-14.5,0.25-20-1.502
				c-3.771-76.797-10.581-135.241-10.581-192.313c16.471,1.117,21.959-1.805,38.43-0.687c10.079,0.684,34.401,0.687,40.785,5.702
				c0.219,0.172-8.683,72.258-9.134,85.298C645,364.333,639.972,425.648,639.972,425.648z"/>
			<g>
				<path style="fill:#FFD7A6;" d="M649,110.613c7.006,2.95,8.169,29.779,8.849,34.892c3.708,27.86-1.017,89.1-1.854,89.607
					c-1.024,0.62-55.529,6.393-79.214-4.675c0.569-22.628,0.246-53.131-2.487-75.601c-0.864-7.103-2.357-18.278-0.75-25.25
					c2.438-10.578,5.009-17.105,14.977-21.402C605.713,100.775,632.756,103.773,649,110.613z"/>
				<g>
					<path style="fill:#F9C893;" d="M592.755,111.375c-1.113,8.617-0.241,18.81,10.294,20.245
						c8.658,1.179,19.508-4.188,22.635-12.506c0.354-0.942-1.157-1.351-1.507-0.415c-2.732,7.316-12.115,11.791-19.641,11.54
						c-10.612-0.354-11.45-10.693-10.844-18.863C593.738,110.762,592.831,110.793,592.755,111.375L592.755,111.375z"/>
				</g>
			</g>
			<path style="fill:#E86B5B;" d="M624.511,113.125c-5.065,8.875-10.648,15.125-20.935,13.125
				c-8.32-1.618-7.911-17.036-7.727-17.431c0.145-0.312,4.557-8.533,3.63-16.373c-0.035-0.295,22.247-7.837,22.247-6.83
				c0,6.856-0.805,15.571,0.748,17.934C624.292,106.316,627.204,108.407,624.511,113.125z"/>
			<g>
				<polygon style="fill:#17213A;" points="492.243,177.404 563.667,177.404 541.33,124.791 468.333,125.406 				"/>
				<polygon style="fill:#223456;" points="490.243,177.404 561.667,177.404 539.33,124.791 466.333,125.406 				"/>
				<rect x="490.243" y="177.404" style="fill:#17213A;" width="110.985" height="8.561"/>
				<rect x="561.667" y="177.404" style="fill:#223456;" width="39.562" height="8.458"/>
				<polygon style="fill:#385889;" points="509.167,147.5 505.833,152.333 512,156.322 516,151.911 				"/>
			</g>
			<g>
				<path style="fill:#FF866D;" d="M634.267,157.77c-3.03,15.73-6.383,19.631-8.664,21.73c-12.035,11.078-28.349,9.914-43.524,8.637
					c-5.324-1.279-7.333-1.956-12.829-2.172c-6.611-0.26-19.181,0.061-26,0c-0.518,1.702,2.6,3.822,3.937,4.995
					c4.307,3.782,7.339,4.963,10.313,5.364c4.478,0.604,5.607-1.393,8.669-0.776c1.551,0.312,40.76,19.987,69.331,5.924
					c15.183-7.473,25.75-15.508,30.249-40.972C655.436,158.277,644.673,156.833,634.267,157.77z"/>
				<path style="fill:#F9C893;" d="M660.5,120.023c-4.03-7.988-16.759-13.759-23.072-5.71c-6.988,8.909-1.428,26.937-3.349,39.012
					c-0.23,1.443,0.157,2.951,0.188,4.444c10.406-0.937,21.169,0.507,31.482,2.731C666.449,156.641,667.333,133.568,660.5,120.023z"
					/>
				<g>
					<path style="fill:#E86B5B;" d="M626.539,183.461c2.183,0.449,4.242,1.178,6.199,2.255c1.585,0.873,2.906,2.317,4.601,2.912
						c0.395,0.139,0.661-0.333,0.503-0.654c-0.842-1.713-3.075-2.804-4.735-3.596c-1.997-0.953-4.126-1.535-6.31-1.851
						C626.196,182.44,625.916,183.333,626.539,183.461L626.539,183.461z"/>
				</g>
			</g>
			<g>
				<path style="fill:#FF866D;" d="M619.446,92.818c-1.258,3.508-17.29,17.795-25.289,7.018c-1.043-1.405-4.689-9.442-4.917-11.177
					c-1.139-8.657-0.361-14.006-1.5-22.663c-0.484-3.681,0.607-4.907,2.938-7.797c1.833-2.273,4.897-2.998,7.684-3.872
					C624.314,46.189,629.053,66.018,619.446,92.818z"/>
				<path style="fill:#17213A;" d="M579.788,51.694c-0.305,0.631-0.447,1.493,0.085,1.95c0.678,0.584,2.065,0.158,2.37,0.999
					c0.127,0.349-0.043,0.732-0.238,1.048c-0.696,1.128-1.745,1.992-2.561,3.036c-0.816,1.045-1.407,2.435-0.966,3.686
					c0.564,1.599,4.897,5.086,14.188-1.289c-1.433,1.617-2.873,4.251-2.56,5.75c0.459,3.918,10.038-3.364,15.164-5.762
					c-0.877,1.626-3.415,5.384-1.693,6.054c1.722,0.669,7.438-1.377,9.159-2.049c-2.044,4.513,2.311,3.472,4.175,2.219
					c-0.728,1.608-3.866,14.875,1.444,15.397c1.663,0.163,6.851-4.657,7.362-4.708c3.408-1.901,3.408-10.151,2.921-14.027
					c-0.041-0.325,0.643-0.422,0.932-0.267c1.102,0.592,3.264,2.102,4.209-0.065c1.221-1.833-2.235-5.303-3.422-5.994
					c1.39-0.537,3.081-1.671,2.581-3.075c-0.17-0.477-0.572-0.827-0.964-1.147c-2.97-2.428-6.287-4.429-9.818-5.926
					c0.748-0.517,1.516-1.056,1.998-1.826c0.482-0.771,0.605-1.842,0.047-2.559c-0.426-0.547-1.137-0.775-1.811-0.939
					c-3.053-0.746-6.271-0.809-9.351-0.182c-3.039-3.85-6.709-3.005-9.463,0.15c-1.923,2.202-4.987-4.333-7.796-2.912
					c-2.792,1.412-2.488,4.123-5.521,3.355c-1.127-0.285-2.41-0.946-3.342-0.249c-2.492,1.865,3.313,5.151-0.292,6.514
					C584.252,49.772,580.984,49.221,579.788,51.694z"/>
				<path style="fill:#FF866D;" d="M618.529,78.602c0.777-3.173,4.388-7.214,7.19-5.534c2.781,1.667,1.478,7.204,0.884,9.285
					c-0.627,2.199-1.644,3.294-3.758,4.167C616.84,89,618.529,78.602,618.529,78.602z"/>
				<path style="fill:#FFFFFF;" d="M594.538,89.446c-0.352,1.832,1.307,6.221,4.946,6.221c3.034,0,4.987-2.458,4.987-6.221
					C600.239,89.932,595.448,89.522,594.538,89.446z"/>
				<g>
					<path style="fill:#E86B5B;" d="M622.248,76.673c0.658-0.466,1.779-1.521,2.276-0.563c0.345,0.664,0.278,1.928,0.239,2.672
						c-0.059,1.117-0.483,2.234-1.058,3.185c-0.49,0.81-1.238,1.366-1.476,2.288c-0.082,0.317,0.199,0.557,0.5,0.5
						c1.525-0.29,2.474-2.347,2.964-3.679c0.53-1.442,0.56-2.849,0.339-4.356c-0.449-3.061-2.505-2.79-4.38-0.82
						C621.283,76.288,621.775,77.008,622.248,76.673L622.248,76.673z"/>
				</g>
				<g>
					<path style="fill:#E86B5B;" d="M620.652,80.274c0.528,0.115,0.967,0.208,0.896,0.839c-0.072,0.635-0.699,0.986-0.75,1.577
						c-0.021,0.239,0.195,0.515,0.429,0.564c1.898,0.394,2.518-4.878-0.575-3.959C620.193,79.431,620.144,80.163,620.652,80.274
						L620.652,80.274z"/>
				</g>
				<g>
					<path style="fill:#E86B5B;" d="M597.121,72.456c0.453,3.091-1.179,6.541-2.797,9.046c-0.638,0.987-2.293,2.985-1.525,4.262
						c1.024,1.701,7.9,2.185,8.644,0.103c0.208-0.58-0.477-0.912-0.93-0.715c-1.055,0.459-3.133,0.12-4.284-0.016
						c-0.469-0.055-1.985-0.563-1.839-0.137c-0.165-0.479,1.026-2.025,1.26-2.41c1.872-3.081,3.52-6.704,2.494-10.415
						C597.958,71.497,597.024,71.798,597.121,72.456L597.121,72.456z"/>
				</g>
				<path style="fill:#17213A;" d="M603.576,76.735c0,1.188,0.617,2.151,1.377,2.151c0.761,0,1.377-0.963,1.377-2.151
					c0-1.188-0.616-2.151-1.377-2.151C604.193,74.584,603.576,75.547,603.576,76.735z"/>
				<path style="fill:#17213A;" d="M590.105,76.735c0,1.188,0.617,2.151,1.377,2.151c0.76,0,1.377-0.963,1.377-2.151
					c0-1.188-0.617-2.151-1.377-2.151C590.722,74.584,590.105,75.547,590.105,76.735z"/>
				<g>
					<path style="fill:#17213A;" d="M589.54,71.248c1.042-0.207,2.058-0.455,3.126-0.472c1.599-0.026,1.327-2.54-0.297-2.194
						c-1.193,0.254-2.39,0.589-3.425,1.253C588.19,70.318,588.682,71.418,589.54,71.248L589.54,71.248z"/>
				</g>
				<g>
					<path style="fill:#17213A;" d="M602.074,70.608c1.102,0.174,2.228,0.068,3.303,0.427c1.447,0.483,2.102-1.857,0.631-2.29
						c-1.248-0.367-2.683-0.252-3.934-0.021C601.154,68.895,601.129,70.459,602.074,70.608L602.074,70.608z"/>
				</g>
				<g>
					<path style="fill:#223254;" d="M586.929,54.946c-1.008,2.15,1.355,3.406,3.15,2.279c1.552-0.974,2.263-2.723,3.986-3.595
						c1.719-0.869,3.696-0.738,5.37-1.595c0.3-0.153,0.181-0.556-0.086-0.657c-1.604-0.607-3.57-0.028-5.106,0.59
						c-0.849,0.342-1.656,0.775-2.37,1.353c-0.374,0.302-0.704,0.625-1.025,0.979c-0.145,0.182-0.29,0.365-0.435,0.548
						c-0.441,0.848-1.208,1.047-2.299,0.597C588.379,54.766,587.24,54.281,586.929,54.946L586.929,54.946z"/>
				</g>
				<g>
					<path style="fill:#223254;" d="M597.378,57.642c1.245,1.222,3.014,0.561,4.333-0.264c0.837-0.524,1.54-1.202,2.287-1.842
						c1.177-1.01,2.185-1.434,3.613-1.917c0.357-0.121,0.354-0.601,0-0.723c-1.44-0.496-2.822,0.393-3.947,1.254
						c-0.654,0.501-1.237,1.082-1.883,1.592c-1.372,1.082-2.488,1.253-4.171,1.341C597.334,57.096,597.167,57.434,597.378,57.642
						L597.378,57.642z"/>
				</g>
				<g>
					<path style="fill:#223254;" d="M609.58,58.534c0.515,1.399,1.922,2.212,3.388,1.663c0.707-0.265,1.222-0.793,1.54-1.468
						c0.243-0.517,0.333-1.089,0.607-1.592c0.44-0.806,1.094-1.078,1.829-1.524c0.315-0.191,0.187-0.699-0.189-0.699
						c-1.099,0.001-2.025,0.814-2.511,1.765c-0.35,0.685-0.397,1.595-0.921,2.186c-0.953,1.075-2.464,0.479-3.044-0.627
						C610.082,57.862,609.428,58.123,609.58,58.534L609.58,58.534z"/>
				</g>
				<g>
					<path style="fill:#223254;" d="M620.289,71.831c0.414-2.279,1.016-5.122,0.476-7.404c-0.06-0.252-0.479-0.269-0.527,0
						c-0.186,1.037-0.081,2.099-0.126,3.151c-0.059,1.372-0.209,2.73-0.425,4.086C619.625,72.056,620.217,72.23,620.289,71.831
						L620.289,71.831z"/>
				</g>
				<g>
					<path style="fill:#223254;" d="M623.664,68c0.065-1.664,0.369-3.724-0.128-5.329c-0.087-0.282-0.485-0.282-0.573,0
						c-0.497,1.607-0.192,3.667-0.128,5.329C622.857,68.533,623.643,68.534,623.664,68L623.664,68z"/>
				</g>
				<g>
					<path style="fill:#223254;" d="M627.132,67.749c0.172-2.793,0.178-5.926-0.718-8.611c-0.126-0.376-0.785-0.344-0.737,0.1
						c0.315,2.881,0.802,5.592,0.657,8.511C626.31,68.263,627.101,68.258,627.132,67.749L627.132,67.749z"/>
				</g>
				<g>
					<path style="fill:#223254;" d="M622.432,53.59c0.812-1.144,2.332-0.679,3.236,0.051c0.642,0.519,1.087,1.255,1.824,1.646
						c0.327,0.174,0.677-0.175,0.502-0.502c-1.02-1.912-4.563-3.984-6.115-1.518C621.656,53.621,622.197,53.921,622.432,53.59
						L622.432,53.59z"/>
				</g>
				<g>
					<path style="fill:#223254;" d="M596.792,47.222c0.951-0.434,2.372-1.063,3.384-0.465c0.743,0.439,0.987,1.511,1.683,2.043
						c0.76,0.581,1.733,0.675,2.565,0.235c0.358-0.19,0.214-0.85-0.217-0.801c-0.74,0.085-1.297,0.232-2-0.374
						c-0.33-0.285-0.52-0.807-0.794-1.141c-0.352-0.429-0.73-0.768-1.272-0.943c-1.266-0.407-2.642,0.196-3.768,0.731
						C595.891,46.737,596.312,47.441,596.792,47.222L596.792,47.222z"/>
				</g>
				<g>
					<path style="fill:#223254;" d="M609.964,48.696c0.613-0.486,0.996-1.194,1.022-1.983c0.017-0.524-0.293-1.288,0.4-1.489
						c0.376-0.109,0.807,0.027,1.195-0.026c0.357-0.049,0.378-0.586,0.097-0.743c-0.699-0.388-1.872-0.308-2.375,0.374
						c-0.351,0.476-0.262,0.992-0.219,1.541c0.055,0.714-0.147,1.273-0.704,1.74C608.966,48.457,609.554,49.021,609.964,48.696
						L609.964,48.696z"/>
				</g>
				<g>
					<path style="fill:#223254;" d="M612.172,51.313c1.009,0.244,2.182,0.472,3.087-0.193c0.506-0.372,0.663-0.966,1.095-1.395
						c0.634-0.628,1.44-0.357,2.205-0.526c0.295-0.065,0.338-0.426,0.165-0.627c-0.679-0.789-2.012-0.452-2.769,0.088
						c-0.516,0.368-0.626,0.829-1.015,1.278c-0.696,0.802-1.718,0.684-2.658,0.562C611.816,50.439,611.725,51.204,612.172,51.313
						L612.172,51.313z"/>
				</g>
			</g>
		</g>
	</g>
	<g>
		<ellipse style="fill:#BAD5D6;" cx="138.945" cy="448.693" rx="66.167" ry="16.973"/>
		<g>
			<g>
				<g>
					<path style="fill:#464293;" d="M179.25,442.75c-1.92,0.32-44.74,1.02-44.75-1.24c0-1.23,0.03-2.46,0.09-3.69
						c0.22-4.88,0.89-9.76,1.66-14.57c1.26-7.92,8.69-11.26,15.94-9.93c0.15,4.14,3.29,4.36,4.06,8.43c0.1,0.53,0.59,3.07,1.84,5.25
						c0.75,1.3,8.14,3.14,14.38,4.72c4.14,1.06,7.78,1.99,8.63,2.6C185.61,437.49,186.75,441.51,179.25,442.75z"/>
					<path style="fill:#9292CC;" d="M179.25,442.75c-1.92,0.32-44.74,1.02-44.75-1.24c0-1.23,0.03-2.46,0.09-3.69
						c0.73,0.03,32.42,1.14,34.24,0c0.92-0.57,1.97-3.54,3.64-6.1c4.14,1.06,7.78,1.99,8.63,2.6
						C185.61,437.49,186.75,441.51,179.25,442.75z"/>
					<g>
						<path style="fill:#FFFFFF;" d="M160.742,435.405c0.859-0.941,1.718-1.883,2.577-2.824c0.866-0.949-0.544-2.368-1.414-1.414
							c-0.859,0.941-1.718,1.883-2.577,2.824C158.461,434.94,159.872,436.358,160.742,435.405L160.742,435.405z"/>
					</g>
					<g>
						<path style="fill:#FFFFFF;" d="M154.374,432.427c1.092-0.896,2.401-1.491,3.506-2.387c0.423-0.343,0.35-1.057,0-1.414
							c-0.41-0.419-0.997-0.338-1.414,0c-1.104,0.895-2.407,1.485-3.506,2.387C151.964,431.83,153.386,433.238,154.374,432.427
							L154.374,432.427z"/>
					</g>
					<g>
						<path style="fill:#FFFFFF;" d="M150.663,426.791c1.685-0.004,3.387-0.573,4.95-1.155c1.196-0.445,0.678-2.379-0.532-1.928
							c-1.39,0.517-2.917,1.079-4.418,1.083C149.377,424.794,149.374,426.794,150.663,426.791L150.663,426.791z"/>
					</g>
				</g>
				<g>
					<path style="fill:#464293;" d="M126.26,451.34c-1.33,0.33-20.85,1.3-29.18-0.15c-2.11-1.42-1.92-3.73-0.8-6.55
						c0,0,0.01-0.01,0.02-0.02c2.09-5.31,7.46-12.44,7.02-18.97c-0.15-2.16,2.25-8.19,2.73-9.9c1.34-4.8,13.77-0.52,13.95,0.14
						c0.69,2.55,1.14,6.72,1.25,9.36c0.26,6.35,4.85,13.98,6.69,19.38l0.01,0.01C129.13,448.09,129.18,450.62,126.26,451.34z"/>
					<path style="fill:#9292CC;" d="M126.26,451.34c-1.33,0.33-20.85,1.3-29.18-0.15c-2.11-1.42-1.92-3.73-0.8-6.55
						c0,0,0.01-0.01,0.02-0.02c0.6-0.61,15.27-15,31.64,0.01l0.01,0.01C129.13,448.09,129.18,450.62,126.26,451.34z"/>
					<g>
						<path style="fill:#FFFFFF;" d="M108.582,432.874c2.333,0,4.667,0,7,0c1.287,0,1.289-2,0-2c-2.333,0-4.667,0-7,0
							C107.295,430.874,107.293,432.874,108.582,432.874L108.582,432.874z"/>
					</g>
					<g>
						<path style="fill:#FFFFFF;" d="M108.667,429.072c2.333,0,4.667,0,7,0c1.287,0,1.289-2,0-2c-2.333,0-4.667,0-7,0
							C107.38,427.072,107.378,429.072,108.667,429.072L108.667,429.072z"/>
					</g>
					<g>
						<path style="fill:#FFFFFF;" d="M108.408,436.601c2.449,0.199,4.895,0.238,7.348,0.116c1.281-0.064,1.289-2.064,0-2
							c-2.454,0.122-4.9,0.083-7.348-0.116C107.125,434.497,107.132,436.497,108.408,436.601L108.408,436.601z"/>
					</g>
				</g>
				<path style="fill:#012151;" d="M103.319,425.648c8.984,0.031,8.948-0.429,17.931-0.398C124,376.5,131.136,264.661,132.66,263
					c1.523-1.661,0.962-1.819,2.294,0c1.603,53.219,0.768,115.065,1.297,160.252c6.5,2.397,14.5,0.25,20-1.502
					c3.774-76.84,12.581-132.25,12.581-189.313c-16.471,1.117-21.959-4.805-38.43-3.687c-10.079,0.684-32.401,3.687-38.785,8.702
					c-0.219,0.172,5.853,69.253,6.134,82.298C98.667,362.324,103.319,425.648,103.319,425.648z"/>
			</g>
			<path style="fill:#AF3535;" d="M168.25,117.25c4.957,6.558,9.821,33.373,11.346,38.62c1.525,5.247,13.654,21.535,32.569,11.441
				c2.866-0.015,4.048,3.618,4.396,6.462c0.718,5.872,1.928,4.35-0.664,5.978c-25.619,16.094-50.36,10.342-55.229-1.945
				C158.253,171.714,150.92,146.898,149,140c-1.578-5.67-11.195-33.761-4.181-33.761C153.464,106.239,161.5,108.319,168.25,117.25z"
				/>
			<g>
				<path style="fill:#23365B;" d="M216.252,183.442c10.106,6.577,13.82,9.667,21.17,13.713c0.948,0.522,4.141,0.049,4.477-0.98
					c5.784-17.751,11.067-34.157,14.931-47.246c0.241-0.815-0.151-1.673-0.919-2.038c-5.18-2.46-19.293-9.924-24.472-12.673
					c-0.983-0.522-3.837-0.844-4.477,1.085c-3.86,11.627-8.046,35.19-11.424,46.19C215.313,182.229,215.608,183.022,216.252,183.442
					z"/>
				<path style="fill:#17213A;" d="M214.252,183.442c10.106,6.577,15.82,9.667,23.17,13.713c0.948,0.522,2.141,0.049,2.477-0.98
					c5.784-17.751,11.067-34.157,14.931-47.246c0.241-0.815-0.151-1.673-0.919-2.038c-5.18-2.46-19.293-9.924-24.472-12.673
					c-0.983-0.522-2.197,0.007-2.477,1.085c-3.078,11.858-10.046,35.19-13.424,46.19
					C213.313,182.229,213.608,183.022,214.252,183.442z"/>
				<path style="fill:#48689B;" d="M225.92,187.634c0,0.594-0.482,1.076-1.076,1.076c-0.594,0-1.076-0.482-1.076-1.076
					c0-0.594,0.482-1.076,1.076-1.076C225.438,186.558,225.92,187.04,225.92,187.634z"/>
				<polygon style="fill:#FFCC32;" points="228.752,137.461 251.375,149.643 238.084,192.605 215.896,179.751 				"/>
				<g>
					<path style="fill:#3928D8;" d="M235.83,181.825c-3.595-2.091-7.118-4.292-10.622-6.529c0.557-1.64,1.115-3.28,1.672-4.92
						c0.156-0.458-0.568-0.655-0.723-0.199c-0.533,1.568-1.066,3.136-1.599,4.704c-0.527-0.337-1.055-0.673-1.582-1.012
						c-0.407-0.262-0.784,0.387-0.379,0.648c0.57,0.366,1.141,0.73,1.712,1.095c-0.165,0.484-0.329,0.968-0.494,1.452
						c-0.156,0.458,0.568,0.655,0.723,0.199c0.14-0.412,0.28-0.824,0.42-1.236c3.461,2.208,6.941,4.381,10.492,6.445
						C235.869,182.716,236.247,182.068,235.83,181.825z"/>
					<path style="fill:#FD5150;" d="M238.807,174.396c-0.028-0.081-0.084-0.148-0.166-0.185c-0.459-0.397-0.919-0.793-1.378-1.19
						c-0.364-0.314-0.896,0.214-0.53,0.53c0.28,0.242,0.559,0.483,0.839,0.724c-1.699,0.215-3.477,0.613-5.153,0.635
						c-0.005-0.288,0.027-0.582,0.039-0.868c0.024-0.568,0.048-1.136,0.073-1.705c0.01-0.236-0.249-0.436-0.475-0.362
						c-1.98,0.654-3.979,1.324-5.868,2.212c-0.437,0.205-0.056,0.852,0.378,0.648c1.644-0.773,3.445-1.492,5.209-1.985
						c0.001,0.184-0.005,0.371-0.039,0.532c-0.128,0.6-0.056,1.308-0.082,1.924c-0.011,0.266,0.248,0.399,0.475,0.362
						c1.773-0.288,3.558-0.486,5.347-0.644c-0.16,0.161-0.32,0.323-0.48,0.484c-0.34,0.343,0.19,0.874,0.53,0.53
						c0.403-0.406,0.805-0.812,1.208-1.219C238.839,174.715,238.871,174.535,238.807,174.396z"/>
				</g>
				<g>
					<polyline style="fill:#3928D8;" points="229.895,151.807 225.698,164.411 229.163,166.438 233.414,153.472 					"/>
					<polyline style="fill:#FD5150;" points="234.314,157.051 230.948,167.161 234.413,169.188 237.767,158.956 					"/>
					<polyline style="fill:#FFFFFF;" points="238.388,162.618 235.96,169.911 239.425,171.938 241.874,164.467 					"/>
				</g>
				<g>
					<path style="fill:#FD5150;" d="M245.714,150.75c-0.015-0.004-0.024-0.013-0.041-0.015c-0.017-0.003-0.035-0.001-0.052-0.004
						c-0.017-0.001-0.031-0.009-0.047-0.01c-0.01-0.001-0.017,0.004-0.027,0.004c-1.46-0.166-3.159,0.494-3.414,2.08
						c-0.254,1.573,0.562,3.064,2.171,3.409c1.663,0.357,3.012-0.688,3.263-2.346C247.753,152.63,247.084,150.933,245.714,150.75z
						 M245.473,151.458c0.014,0.002,0.026-0.003,0.04-0.002c0.021,0.004,0.037,0.014,0.06,0.015c0.334,0.017,0.588,0.2,0.785,0.455
						c-0.058,0.012-0.117,0.035-0.171,0.082c-0.474,0.403-0.949,0.805-1.423,1.208c-0.016,0.014-0.021,0.029-0.034,0.043
						c-0.491-0.36-0.982-0.72-1.473-1.08C243.762,151.589,244.648,151.335,245.473,151.458z M244.227,155.422
						c-1.001-0.309-1.436-1.228-1.386-2.217c0.007-0.128,0.035-0.244,0.064-0.359c1.047,0.768,2.094,1.536,3.14,2.303
						C245.564,155.516,244.918,155.635,244.227,155.422z M246.788,153.974c-0.055,0.229-0.145,0.428-0.25,0.611
						c-0.399-0.293-0.798-0.586-1.197-0.878c0.448-0.38,0.896-0.761,1.345-1.141C246.844,153.061,246.874,153.614,246.788,153.974z"
						/>
					<path style="fill:#3928D8;" d="M234.251,145.561c-0.055-0.372-0.195-0.742-0.46-1.09c-0.734-0.965-2.446-1.508-3.483-0.729
						c-0.012,0.006-0.023,0.006-0.035,0.014c-1.259,0.82-1.993,2.301-1.201,3.746c0.872,1.591,2.846,1.524,4.132,0.477
						c0.718-0.585,1.127-1.415,1.066-2.254C234.276,145.672,234.269,145.616,234.251,145.561z M230.652,144.405
						c0.016-0.01,0.023-0.024,0.036-0.036c0.013-0.009,0.027-0.012,0.04-0.023c0.721-0.637,2.133,0.031,2.566,0.714
						c0.055,0.087,0.097,0.174,0.133,0.263c-1.298,0.188-2.595,0.379-3.892,0.567C229.658,145.282,230.089,144.771,230.652,144.405z
						 M232.885,147.268c-0.975,0.901-2.723,1.125-3.268-0.365c-0.033-0.09-0.049-0.176-0.069-0.263
						c1.328-0.192,2.655-0.387,3.982-0.58C233.482,146.508,233.245,146.935,232.885,147.268z"/>
					<path style="fill:#FFFFFF;" d="M236.232,148.161c-1.175,0.708-1.582,2.404-0.643,3.486c1.102,1.27,3.15,1.527,4.407,0.424
						c1.064-0.933,1.045-2.74,0.064-3.766C238.986,147.184,237.412,147.296,236.232,148.161z M239.381,148.701
						c0.264,0.233,0.459,0.583,0.568,0.961c-0.555,0.056-1.111,0.112-1.666,0.167c-0.087,0.009-0.153,0.046-0.209,0.093
						c-0.079-0.476-0.139-0.955-0.165-1.443c-0.005-0.088-0.039-0.155-0.084-0.211C238.36,148.176,238.904,148.28,239.381,148.701z
						 M236.611,148.809c0.174-0.128,0.36-0.234,0.549-0.324c0.065,1.19,0.275,2.349,0.634,3.484
						c-0.397-0.067-0.794-0.212-1.148-0.423C235.593,150.921,235.543,149.452,236.611,148.809z M239.851,151.092
						c-0.313,0.538-0.777,0.801-1.285,0.883c-0.003-0.021,0-0.04-0.007-0.063c-0.145-0.443-0.26-0.89-0.359-1.341
						c0.028,0.003,0.052,0.012,0.084,0.009c0.57-0.057,1.14-0.115,1.711-0.172c0.017-0.002,0.029-0.01,0.044-0.014
						C240.025,150.646,239.969,150.888,239.851,151.092z"/>
				</g>
				<path style="fill:#48689B;" d="M241.927,142.375c0,0.345-0.28,0.625-0.625,0.625c-0.345,0-0.625-0.28-0.625-0.625
					c0-0.345,0.28-0.625,0.625-0.625C241.647,141.75,241.927,142.03,241.927,142.375z"/>
			</g>
			<path style="fill:#FF866D;" d="M220.2,155.908c-3.269,0.872-6.752,11.291-7.042,11.558c-0.286,0.264,3.134,4.635,3.134,4.635
				c1.814-0.976,3.238-2.351,3.987-5.494c0.193-0.809,0.315-4.256,0.72-4.982c1.033-1.853,1.382,0.11,3.5,0
				C228.71,160.632,222.432,155.313,220.2,155.908z"/>
			<g>
				<path style="fill:#E24444;" d="M92.216,113.125c-6.751,3.494-5.239,10.974-8.553,17.815c-2.249,4.642-0.336,13.272,0.22,18.399
					c4.367,40.25,6.896,87.605,7.734,88.112c1.024,0.62,53.529,6.393,77.214-4.675c-0.569-22.628-4.564-53.968-1.831-76.437
					c0.864-7.103,3.148-22.365,1.541-29.337c-2.438-10.578-7.713-18.853-22.762-20.647c-11.901-1.419-16.381-2.888-27.075,0
					C112.694,107.979,99.333,109.441,92.216,113.125z"/>
				<g>
					<path style="fill:#C43D3D;" d="M113.219,111.718c4.413,5.638,11.715,7.249,18.568,6.902c6.368-0.322,13.022-1.485,15.236-8.239
						c0.323-0.986-1.232-1.41-1.552-0.428c-2.186,6.709-10.505,7.309-16.531,7.128c-5.845-0.175-10.729-2.052-14.848-6.236
						C113.518,110.263,112.743,111.11,113.219,111.718L113.219,111.718z"/>
				</g>
				<path style="fill:#E86B5B;" d="M117.692,111.006c4.29,2.812,9.704,3.248,14.833,3.25c8.475,0.003,11.717-5.041,11.533-5.436
					c-0.145-0.312-4.557-8.533-3.63-16.373c0.035-0.295-21.436-7.161-21.436-6.155c0,6.856-0.391,12.633-1.558,17.258
					C116.623,106.76,113.148,108.028,117.692,111.006z"/>
			</g>
			<path style="fill:#FF866D;" d="M204.76,182.582c1.395,0.085,7.037,0.465,8.399,0.145c4.952-1.162,0.618-5.882,5.669-6.478
				c0.929-0.11,11.789-1.259,11.8-2.195c0.041-3.411-11.357-0.465-17.333-1.781c-2.436-0.536-4.914-2.077-7.24-1.178
				c-1.068,0.413-1.898,1.293-2.949,1.746c-1.184,0.51-4.693,1.323-5.982,1.323c-2.373,0-5.894,0.618-15.123,0
				c-5.241,2.831-0.76,11.125,2.55,10.602C193.514,183.352,195.57,182.021,204.76,182.582z"/>
			<g>
				<path style="fill:#C43D3D;" d="M89,153.25c5.584,7.694,14.911,15.684,22.456,21.468c6.382,4.893,13.253,9.259,20.794,12.051
					c10.33,3.825,38.58,8.23,65.25-2.804c-0.211-8.353,1.5-8.465-2.25-11.864c-11.43,3.232-43.065-7.026-53.931-11.824
					c-20.858-9.209-25.91-49.78-40.662-49.195C79,111.942,78.339,138.559,89,153.25z"/>
				<g>
					<path style="fill:#AF3535;" d="M192.87,184.333c0.293-3.066,0.409-7.278-1.328-9.973c-0.285-0.443-1.134-0.317-1.077,0.292
						c0.136,1.449,0.71,2.823,0.96,4.263c0.313,1.798,0.431,3.595,0.352,5.418C191.745,185.045,192.804,185.022,192.87,184.333
						L192.87,184.333z"/>
				</g>
				<g>
					<path style="fill:#AF3535;" d="M134.546,171.977c0.852-1.571,1.754-3.111,2.729-4.61c0.847-1.303,2.113-2.587,2.574-4.073
						c0.096-0.311-0.292-0.638-0.574-0.441c-1.241,0.865-1.992,2.426-2.777,3.696c-0.995,1.61-1.907,3.267-2.762,4.955
						C133.466,172.038,134.257,172.51,134.546,171.977L134.546,171.977z"/>
				</g>
				<g>
					<path style="fill:#AF3535;" d="M139.081,174.116c0.194-0.609,1.631-6.97,1.879-6.969c0.336,0.002,0.494-0.299,0.452-0.593
						c-0.008-0.054-0.015-0.108-0.023-0.162c-0.035-0.247-0.339-0.447-0.575-0.438c-1.185,0.044-1.253,1.383-1.448,2.299
						c-0.399,1.87-0.816,3.747-1.098,5.639C138.189,174.417,138.912,174.647,139.081,174.116L139.081,174.116z"/>
				</g>
			</g>
			<g>
				<path style="fill:#FF866D;" d="M119.592,91.379c1.257,3.508,18.158,19.234,26.158,8.457c1.043-1.405,4.051-5.669,4.917-11.177
					c1.356-8.626,0.361-14.006,1.5-22.663c0.484-3.681-0.607-4.907-2.938-7.797c-1.833-2.273-4.897-2.998-7.684-3.872
					C115.593,46.189,109.985,64.578,119.592,91.379z"/>
				<path style="fill:#012151;" d="M123.634,69.626c0.137-1.475,0.354-2.999,1.149-4.249c1.211-1.908,3.519-2.806,5.734-3.252
					c4.44-0.895,9.144-0.434,13.327,1.305c3.464,1.44,7.09,3.786,10.658,2.628c3.793-1.231,5.294-5.724,6.017-9.646
					c0.813-4.408,1.286-9.136-0.553-13.224c-1.839-4.088-6.749-7.098-10.892-5.385c-4.183,1.73-5.728,7.165-9.751,9.24
					c-6.51,3.357-15.422-3.797-21.342,0.515c-3.546,2.583-3.664,7.736-3.424,12.117c-2.234-0.719-4.642,1.101-5.43,3.311
					c-0.788,2.21-0.399,4.645-0.001,6.957c0.705,4.097,2.751,12.605,6.639,15.055c2.362,1.489,8.059-0.893,9.309-2.528
					C124.455,77.355,123.151,74.8,123.634,69.626z"/>
				<path style="fill:#FF866D;" d="M121.341,80.765c-0.777-3.173-4.56-7.472-7.19-5.534c-3.937,2.901-1.799,6.236-1.205,8.318
					c0.627,2.199,1.877,4.517,4.079,5.134c1.625,0.456,3.505-0.242,4.439-1.648C122.397,85.63,121.341,80.765,121.341,80.765z"/>
				<path style="fill:#FFFFFF;" d="M147,89.446c0.404,1.832-1.833,7.525-6.015,7.525c-3.485,0-5.398-3.763-5.398-7.525
					C135.961,90.599,145.954,89.522,147,89.446z"/>
				<g>
					<path style="fill:#E86B5B;" d="M116.874,78.115c-2.142-1.009-3.376,1.285-3.166,3.166c0.203,1.824,1.411,5.399,3.541,5.651
						c0.284,0.034,0.435-0.285,0.392-0.514c-0.202-1.065-1.223-1.771-1.724-2.734c-0.424-0.814-1.996-5.167,0.578-4.67
						C117.004,79.114,117.412,78.369,116.874,78.115L116.874,78.115z"/>
				</g>
				<g>
					<path style="fill:#E86B5B;" d="M118.827,81.509c-1.425,0.769-1.065,3.098,0.15,3.872c0.623,0.397,1.316-0.509,0.787-1.02
						c-0.682-0.658-0.637-1.343-0.242-2.157C119.741,81.753,119.292,81.258,118.827,81.509L118.827,81.509z"/>
				</g>
				<g>
					<path style="fill:#E86B5B;" d="M141.761,72.174c-0.832,2.286-1.219,4.991-0.914,7.426c0.083,0.664,0.233,1.272,0.675,1.795
						c0.168,0.199,0.475,0.317,0.618,0.501c0.127,0.103,0.265,0.182,0.416,0.239c1.085,0.418,0.779,1.469-0.918,3.153
						c-0.452-0.22-1.13,0.152-0.93,0.715c1.029,2.892,4.542,0.585,4.937-1.58c0.231-1.266-0.1-2.277-0.975-3.184
						c-0.216-0.224-0.627-0.26-0.846-0.462c-0.898-0.829-1.252-1.786-1.392-2.9c-0.216-1.71,0.011-3.761,0.353-5.422
						C142.924,71.782,141.994,71.533,141.761,72.174L141.761,72.174z"/>
				</g>
				<path style="fill:#012151;" d="M136.33,76.735c0,1.188-0.617,2.151-1.377,2.151c-0.76,0-1.377-0.963-1.377-2.151
					c0-1.188,0.617-2.151,1.377-2.151C135.714,74.584,136.33,75.547,136.33,76.735z"/>
				<path style="fill:#012151;" d="M149.801,76.735c0,1.188-0.617,2.151-1.377,2.151c-0.761,0-1.377-0.963-1.377-2.151
					c0-1.188,0.617-2.151,1.377-2.151C149.184,74.584,149.801,75.547,149.801,76.735z"/>
				<g>
					<path style="fill:#012151;" d="M130.97,69.829c1.263-1.193,3.209-2.395,5.04-1.905c0.828,0.222,1.159-0.837,0.547-1.298
						c-0.834-0.628-2.201-0.301-3.108-0.01c-1.333,0.428-2.479,1.254-3.363,2.329C129.583,69.557,130.374,70.392,130.97,69.829
						L130.97,69.829z"/>
				</g>
				<g>
					<path style="fill:#012151;" d="M146.676,67.954c0.612,0.155,1.329-0.042,1.973,0.069c0.67,0.115,1.29,0.406,1.94,0.591
						c0.408,0.116,0.781-0.356,0.556-0.723c-0.505-0.825-1.415-1.007-2.328-1.109c-0.739-0.082-1.906-0.117-2.389,0.564
						C146.274,67.564,146.434,67.893,146.676,67.954L146.676,67.954z"/>
				</g>
				<g>
					<path style="fill:#063670;" d="M113.994,71.183c-0.954-1.552-1.358-3.398-0.809-5.175c0.559-1.807,1.902-2.46,3.047-3.768
						c0.16-0.182,0.074-0.586-0.226-0.547c-1.793,0.234-3.158,2.165-3.698,3.787c-0.705,2.117-0.254,4.3,1.052,6.073
						C113.634,71.925,114.248,71.595,113.994,71.183L113.994,71.183z"/>
				</g>
				<g>
					<path style="fill:#063670;" d="M117.27,70.846c-0.334-1.127-0.422-2.276-0.163-3.429c0.239-1.063,0.837-1.907,1.275-2.881
						c0.166-0.369-0.235-0.683-0.552-0.426c-1.907,1.545-2.001,4.797-1.298,6.939C116.684,71.514,117.411,71.322,117.27,70.846
						L117.27,70.846z"/>
				</g>
				<g>
					<path style="fill:#063670;" d="M121.1,72.487c-0.154-1.277-0.122-2.525,0.116-3.792c0.191-1.018,0.677-1.963,0.784-2.985
						c0.03-0.29-0.388-0.444-0.574-0.238c-1.564,1.742-1.349,4.971-0.879,7.09C120.615,72.865,121.138,72.805,121.1,72.487
						L121.1,72.487z"/>
				</g>
				<g>
					<path style="fill:#063670;" d="M119.63,59.253c-0.024-1.406-0.068-2.862,0.383-4.214c0.43-1.287,1.259-1.98,2.177-2.893
						c0.214-0.213-0.011-0.514-0.274-0.47c-3.176,0.533-3.117,5.237-2.989,7.577C118.952,59.701,119.638,59.708,119.63,59.253
						L119.63,59.253z"/>
				</g>
				<g>
					<path style="fill:#063670;" d="M122.026,60c0.083-1.056,0.432-2.092,1.037-2.966c0.531-0.768,1.421-1.186,1.912-1.942
						c0.119-0.183-0.035-0.461-0.256-0.447c-1.022,0.065-1.867,1.164-2.378,1.966c-0.654,1.027-0.951,2.175-0.924,3.388
						C121.425,60.396,121.995,60.387,122.026,60L122.026,60z"/>
				</g>
				<g>
					<path style="fill:#063670;" d="M124.349,61.347c0.343-0.87,0.929-1.614,1.702-2.143c0.718-0.491,1.496-0.586,2.279-0.897
						c0.241-0.096,0.321-0.514,0-0.573c-2.035-0.37-4.013,1.708-4.66,3.425C123.51,61.586,124.185,61.762,124.349,61.347
						L124.349,61.347z"/>
				</g>
				<g>
					<path style="fill:#063670;" d="M142.539,59.014c2.96,1.699,6.608,3.577,10.007,1.88c2.808-1.402,3.717-5.098,3.202-7.985
						c-0.05-0.282-0.525-0.285-0.573,0c-0.485,2.887-0.16,6.298-3.612,7.512c-2.998,1.054-6.136-0.526-8.764-1.851
						C142.505,58.42,142.249,58.847,142.539,59.014L142.539,59.014z"/>
				</g>
				<g>
					<path style="fill:#063670;" d="M143.141,54.927c2.115,1.076,4.574,1.21,6.696,0.049c1.756-0.961,3.522-3.148,3.317-5.247
						c-0.027-0.279-0.451-0.482-0.597-0.162c-0.736,1.617-1.098,3.036-2.603,4.18c-1.895,1.44-4.333,1.569-6.466,0.586
						C143.093,54.151,142.742,54.724,143.141,54.927L143.141,54.927z"/>
				</g>
				<g>
					<path style="fill:#063670;" d="M144.486,51.384c3.549,0.118,6.432-3.608,6.869-6.898c0.055-0.412-0.525-0.47-0.713-0.193
						c-0.799,1.17-1.08,2.633-1.901,3.819c-1.007,1.455-2.424,2.56-4.255,2.6C144.053,50.721,144.053,51.369,144.486,51.384
						L144.486,51.384z"/>
				</g>
				<g>
					<path style="fill:#063670;" d="M144.672,48.535c1.66-1.272,3.15-3.348,2.97-5.537c-0.015-0.188-0.279-0.239-0.338-0.046
						c-0.614,2.03-1.259,3.773-2.983,5.129C144.066,48.281,144.411,48.735,144.672,48.535L144.672,48.535z"/>
				</g>
			</g>
		</g>
	</g>
</g>
</svg>
